<svg width="90" height="108" viewBox="0 0 90 108" fill="none" xmlns="http://www.w3.org/2000/svg">
<path d="M87.5893 19.6303C80.3056 17.6693 73.1898 15.1212 66.3107 12.0106C59.5428 9.04903 53.0095 5.56948 46.7679 1.60242L45 0.5L43.2643 1.63485C37.0226 5.6019 30.4893 9.08145 23.7214 12.043C16.8309 15.1442 9.7044 17.6815 2.41071 19.6303L0 20.2464V47.2882C0 90.7042 43.4893 106.949 43.9071 107.111L45 107.5L46.0929 107.111C46.5429 107.111 90 90.7367 90 47.2882V20.2464L87.5893 19.6303ZM72.9 41.1924L36.9964 76.3727L16.6821 55.8482C15.8297 54.9882 15.3507 53.8219 15.3507 52.6058C15.3507 51.3896 15.8297 50.2233 16.6821 49.3633C17.5346 48.5034 18.6908 48.0203 19.8964 48.0203C21.102 48.0203 22.2582 48.5034 23.1107 49.3633L37.0929 63.7273L66.6321 34.5455C67.0542 34.1197 67.5554 33.7819 68.1069 33.5514C68.6584 33.321 69.2495 33.2024 69.8464 33.2024C70.4434 33.2024 71.0345 33.321 71.586 33.5514C72.1375 33.7819 72.6386 34.1197 73.0607 34.5455C73.4828 34.9713 73.8177 35.4768 74.0461 36.0331C74.2745 36.5894 74.3921 37.1857 74.3921 37.7879C74.3921 38.3901 74.2745 38.9863 74.0461 39.5427C73.8177 40.099 73.4828 40.6045 73.0607 41.0303L72.9 41.1924Z" fill="#001D55"/>
</svg>
